PathFileType	4	(X/Y/Z)
DataRate	CameraRate	NumFrames	NumMarkers	Units	OrigDataRate	OrigDataStartFrame	OrigNumFrames	
  120.0	  120.0	    4	     56	     mm	  120.0	      378	    431
Frame#	Time	LASI			RASI			LPSI			RPSI			RTH1			RTH2			RTH3			RLFC			RMFC			LTH1			LTH2			LTH3			LLFC			LMFC			RTB1			RTB2			RTB3			RLMAL			RMMAL			LTB1			LTB2			LTB3			LMMAL			LLMAL			RCAL			RTOE			RMT5			LCAL			LTOE			LMT5			LACR			RACR			CLAV			C7			LASH			LPSH			RASH			RPSH			RUA1			RUA2			RUA3			RLEL			RMEL			LUA1			LUA2			LUA3			LLEL			LMEL			RFAsuperior			RFAradius			RFAulna			LFAsuperior			LFAradius			LFAulna			RHJC			LHJC			
		X1	Y1	Z1	X2	Y2	Z2	X3	Y3	Z3	X4	Y4	Z4	X5	Y5	Z5	X6	Y6	Z6	X7	Y7	Z7	X8	Y8	Z8	X9	Y9	Z9	X10	Y10	Z10	X11	Y11	Z11	X12	Y12	Z12	X13	Y13	Z13	X14	Y14	Z14	X15	Y15	Z15	X16	Y16	Z16	X17	Y17	Z17	X18	Y18	Z18	X19	Y19	Z19	X20	Y20	Z20	X21	Y21	Z21	X22	Y22	Z22	X23	Y23	Z23	X24	Y24	Z24	X25	Y25	Z25	X26	Y26	Z26	X27	Y27	Z27	X28	Y28	Z28	X29	Y29	Z29	X30	Y30	Z30	X31	Y31	Z31	X32	Y32	Z32	X33	Y33	Z33	X34	Y34	Z34	X35	Y35	Z35	X36	Y36	Z36	X37	Y37	Z37	X38	Y38	Z38	X39	Y39	Z39	X40	Y40	Z40	X41	Y41	Z41	X42	Y42	Z42	X43	Y43	Z43	X44	Y44	Z44	X45	Y45	Z45	X46	Y46	Z46	X47	Y47	Z47	X48	Y48	Z48	X49	Y49	Z49	X50	Y50	Z50	X51	Y51	Z51	X52	Y52	Z52	X53	Y53	Z53	X54	Y54	Z54	X55	Y55	Z55	X56	Y56	Z56	

378	3.15000	888.35347	1031.09818	-613.83002	897.26185	1024.37791	-377.00097	729.76019	1055.84833	-541.01956	727.75457	1053.67614	-442.65477	816.13684	872.02329	-301.89582	878.76740	738.67406	-304.27708	796.50279	612.06501	-313.64785	812.91216	516.47216	-304.36527	800.50123	503.35347	-428.79102	826.83845	850.35255	-683.62543	878.40758	741.04734	-683.43084	802.76062	627.35020	-665.44674	821.33225	518.99085	-669.65701	812.12560	504.40468	-550.71598	838.39677	372.11556	-338.96098	792.01583	329.42524	-268.53003	812.67179	254.00390	-322.36135	741.01911	140.10254	-266.76276	775.90010	124.37793	-345.65866	847.36416	393.97758	-627.07637	791.34719	336.95437	-708.71602	818.80453	229.90390	-655.79053	786.02733	122.34820	-627.51428	761.58628	126.10305	-710.19380	690.03664	105.70245	-301.93646	897.18998	73.52207	-315.98359	874.35143	64.06911	-222.68664	703.77342	107.49348	-672.12246	909.34942	77.94573	-661.73679	890.99927	64.20556	-751.89063	787.40788	1494.16046	-659.13738	787.26195	1491.08685	-312.93981	855.75899	1481.54376	-462.68218	730.48011	1527.86724	-490.64039	855.51291	1453.48596	-637.82036	731.47470	1440.97370	-677.75238	851.30242	1459.80684	-336.24323	720.34182	1438.38944	-309.85231	841.04604	1443.15645	-202.40691	814.12400	1385.67443	-175.62523	898.37940	1424.06821	-139.62112	942.07036	1402.74972	-81.05215	944.91562	1321.87716	-99.70611	837.04715	1431.62620	-770.58794	854.10605	1380.94983	-817.97141	928.87336	1422.86269	-805.82676	973.19372	1395.76699	-880.89752	952.12853	1320.54237	-859.60484	1063.77704	1414.20097	-121.91288	1178.33657	1379.79951	-176.29697	1185.00325	1383.74620	-105.25626	1100.10488	1399.51999	-843.12854	1193.46008	1347.67434	-768.39384	1210.85502	1372.07959	-831.28721	807.11278	993.97021	-429.34382	820.99911	979.77729	-556.54456	
379	3.15833	888.30251	1031.10237	-613.84638	897.20959	1024.37471	-377.03240	729.71740	1055.83966	-541.01738	727.71023	1053.72124	-442.61569	816.07430	871.93430	-301.89945	878.78295	738.70119	-304.27063	796.51186	612.07137	-313.64226	812.91732	516.47206	-304.36225	800.53644	503.35519	-428.80454	826.82072	850.35709	-683.59670	878.39261	741.04832	-683.42856	802.71105	627.35568	-665.42967	821.29809	518.99207	-669.66629	812.02329	504.44165	-550.72434	838.39716	372.11164	-338.97535	792.01330	329.41587	-268.53539	812.67418	254.00309	-322.36862	741.02547	140.08881	-266.70813	775.89293	124.37796	-345.64943	847.34010	393.98381	-627.09933	791.32399	336.95459	-708.71211	818.79444	229.90636	-655.79680	786.02664	122.34729	-627.51848	761.57425	126.09625	-710.19747	690.02312	105.71239	-301.94108	897.18464	73.51963	-315.99728	874.34391	64.05872	-222.69682	703.75984	107.48166	-672.10510	909.33580	77.95047	-661.73999	890.99652	64.21296	-751.89606	787.37626	1494.15638	-659.12988	787.22724	1491.08652	-312.95400	855.74148	1481.55000	-462.68415	730.45285	1527.83740	-490.70742	855.48816	1453.48951	-637.80979	731.44254	1440.96733	-677.74251	851.29048	1459.85403	-336.18234	720.29258	1438.39170	-309.88090	841.00096	1443.16811	-202.43064	814.06269	1385.69209	-175.63527	898.34169	1424.07239	-139.63004	942.00837	1402.75668	-81.07314	944.85769	1321.87597	-99.70664	837.03161	1431.61656	-770.59647	854.08909	1380.95034	-817.97094	928.84451	1422.85899	-805.81877	973.16953	1395.75006	-880.88022	952.11099	1320.52702	-859.60230	1063.73040	1414.19822	-121.93477	1178.27719	1379.78701	-176.25392	1184.95999	1383.73780	-105.26101	1100.08065	1399.52036	-843.11042	1193.43340	1347.65690	-768.42292	1210.84406	1372.07657	-831.23284	807.07584	993.97525	-429.34752	820.92744	979.78978	-556.55355	
380	3.16667	888.24482	1031.10576	-613.85330	897.15496	1024.37401	-377.06318	729.66578	1055.83882	-541.00557	727.66445	1053.73479	-442.59795	815.99830	871.81816	-301.91044	878.79728	738.69199	-304.27005	796.51654	612.06789	-313.64379	812.92394	516.47260	-304.35690	800.57275	503.35271	-428.82231	826.78958	850.35893	-683.56291	878.38190	741.04904	-683.43162	802.67060	627.35844	-665.42522	821.26764	518.99224	-669.66053	811.94597	504.46558	-550.73498	838.39460	372.11054	-338.98468	792.02639	329.47341	-268.46532	812.67210	254.00538	-322.37168	741.01788	140.06876	-266.73764	775.86276	124.35051	-345.55684	847.31750	393.98902	-627.12077	791.30695	336.95860	-708.71918	818.78640	229.90384	-655.80545	786.02459	122.34807	-627.51836	761.55989	126.09337	-710.19648	690.01144	105.71883	-301.94589	897.18399	73.51969	-316.00329	874.33773	64.05237	-222.70080	703.74852	107.45433	-672.06648	909.32534	77.95444	-661.74767	890.99573	64.22200	-751.90805	787.35195	1494.15057	-659.12775	787.19172	1491.08398	-312.96136	855.73413	1481.58255	-462.64843	730.41272	1527.81883	-490.74428	855.46577	1453.49802	-637.79598	731.41115	1440.96398	-677.71890	851.27910	1459.89028	-336.12854	720.24596	1438.39154	-309.89799	840.94744	1443.17557	-202.45754	813.99836	1385.70962	-175.63834	898.30180	1424.07020	-139.63650	941.94539	1402.76587	-81.08658	944.79152	1321.87253	-99.69916	837.01216	1431.60630	-770.60397	854.07518	1380.93459	-817.93424	928.81501	1422.85225	-805.81498	973.14388	1395.74381	-880.87423	952.09489	1320.51267	-859.59827	1063.68346	1414.19702	-121.95086	1178.22229	1379.77679	-176.21121	1184.91590	1383.72341	-105.27682	1100.06108	1399.51817	-843.10293	1193.41243	1347.64918	-768.43584	1210.82977	1372.07194	-831.17711	807.03338	993.97613	-429.35087	820.85928	979.79624	-556.56078	
381	3.17500	888.18722	1031.11030	-613.84727	897.10236	1024.37445	-377.07293	729.60930	1055.84564	-540.98483	727.61994	1053.71304	-442.60385	815.95063	871.74554	-301.92128	878.80969	738.66210	-304.26259	796.51645	612.05746	-313.64846	812.92727	516.47365	-304.34970	800.59416	503.34598	-428.83559	826.75188	850.35773	-683.53834	878.37412	741.04849	-683.42974	802.65169	627.35818	-665.43791	821.24558	518.99229	-669.64717	811.92404	504.45988	-550.73600	838.38848	372.11020	-338.98798	792.05170	329.58181	-268.34187	812.66705	254.00813	-322.37127	741.00485	140.05416	-266.81700	775.82523	124.30809	-345.42608	847.29703	393.99133	-627.12813	791.29684	336.96495	-708.73396	818.78168	229.89870	-655.81303	786.02209	122.35012	-627.51400	761.55129	126.09570	-710.19139	690.01180	105.71610	-301.94764	897.18923	73.52148	-315.99713	874.33658	64.05413	-222.69685	703.74471	107.42234	-672.02334	909.32284	77.95619	-661.75204	890.99787	64.22646	-751.91995	787.33290	1494.13981	-659.13783	787.15890	1491.07922	-312.96023	855.72522	1481.63146	-462.58705	730.36488	1527.82188	-490.74041	855.44353	1453.50486	-637.78345	731.38552	1440.96419	-677.69358	851.26934	1459.91318	-336.06706	720.20521	1438.38923	-309.88843	840.89108	1443.17715	-202.47738	813.93839	1385.72224	-175.63046	898.26282	1424.06659	-139.63688	941.88779	1402.77882	-81.08405	944.72583	1321.87101	-99.67759	836.98736	1431.59276	-770.60856	854.05741	1380.91472	-817.91381	928.78698	1422.84212	-805.81113	973.11735	1395.75111	-880.89291	952.07982	1320.50187	-859.59179	1063.63770	1414.19580	-121.95691	1178.17683	1379.76501	-176.18798	1184.87163	1383.70483	-105.29781	1100.04301	1399.51192	-843.09769	1193.39790	1347.65499	-768.41973	1210.80684	1372.06762	-831.12919	806.98557	993.97188	-429.34908	820.80549	979.79609	-556.56017	
